<svg xmlns="http://www.w3.org/2000/svg" viewBox="0 0 13998 14023" shape-rendering="geometricPrecision" text-rendering="geometricPrecision" image-rendering="optimizeQuality" fill-rule="evenodd" clip-rule="evenodd"><defs><style>.fil0{fill:#fff}</style></defs><g id="Layer_x0020_1"><g id="_2560987006512"><path d="M5146 4144c-30 251-158 270-280 422-98-81-213-106-343-222-114-102-204-174-354-250-645-330-1630-223-2305-33-154 43-309 91-456 151-69 28-139 61-206 96-84 43-120 86-196 123 15 324 0 467 96 734 75 210 159 343 280 527 31 47 58 85 83 119l292 316c99 96 322 277 463 348 505 252 1019 422 1653 229l896-312c9 310-12 406 128 661 111 203 177 362 178 627 0 510-137 973-65 1507 31 227 71 405 183 603 289 511 536 777 566 1428 3 67-6 139-2 202l29 228c0 394 121 706 480 811 623 183 386 378 836 502 100 27 1062 187 1171-10 54-96 5-1896-11-2464 140 111 371 485 503 658 48 63 78 101 120 156l744 1002c45 62 95 114 135 167 335 442 253 545 747 544 171 0 195 20 329-67 15-186-102-271-184-381l-1200-1581c-64-87-168-214-244-312l-234-314c39-50 62-72 100-118 43-52 59-82 111-143 81-95 144-184 226-278 91-105 141-182 225-281 18-21 40-44 59-66l856-1041c56-71 126-150 145-237 1-7 3-29 3-35 0-79-53-123-199-144-491-70-631 236-899 605-42 57-82 101-133 169l-405 504c-81 103-172 228-262 346-93 123-180 228-269 337l-196 259c-44 59-22 38-74 77 0-299 17-2082-49-2204-93-130-463-86-667 15l40 3897-734 142c-266 68-504 83-628-198-194-443-144-1051 79-1463l116-188c131-191 319-312 406-530 295-745-220-2127-584-2713-211-340-489-846-885-986-161-58-314-85-531-67-550 48-758 308-1167 396l-129 22c-31 4-35 2-67 8-137 26 6 36-285 1-540-64-1093-369-1406-790-148-200-275-370-365-621-35-98-75-203-72-310 5-164 85-153 214-219 226-116 499-188 753-228 598-95 1435-137 1926 260l56 46c361 286 581 500 979 76 90-96 374-470 248-620-36-42-132-118-175-157-66-59-115-103-178-150-65-49-112-76-182-145l-92-85c-4-3-11-7-15-10l-155-125c-175-141-337-312-486-497-32-39-54-62-83-96-260-303-496-681-571-1080 87 34 295 203 379 287 591 589 1482 1095 2336 1030 136-10 1104-177 1164-206 15 1483 47 2966 42 4448-1 178 38 223 199 261 258 61 667 37 814-84 49-90-16-2106-20-2381l765 1156c49 76 90 129 134 198l635 979c112 146 333 124 511 126 150 2 305 9 447-36 251-80 114-272 24-434l-610-909c-165-252-794-1112-878-1303l56-76c3-5 8-11 11-15 3-5 7-11 10-15l1290-1742c315-460-61-463-400-457-589 12-462-9-1013 812l-855 1269c-39 62-78 122-127 175 2-400 17-1989-26-2123-33-102-223-110-328-115-350-16-632-4-949 47l-546 87c-943 115-1565-189-2261-738l-659-602c-33-39-54-72-97-106-42-33-86-50-145-60-620-109-97 1013 41 1248l341 495c334 407 620 720 1036 1060 85 70 168 104 248 174z" fill="#4a4a4c"/><path class="fil0" d="M5454 7366l-46 870c-6 85-15 119-20 205-3 38-2 57-7 95-1 8-2 14-3 22-2 8-3 14-4 22-25 163-19 331-1 493 54 486 189 634 406 966 66 100 122 189 153 322 134-123 142-224 234-355 90-128 192-184 282-298 96-122 102-308 95-486-17-461-200-1058-358-1435-2-5-5-12-7-17-3-6-5-13-8-18-2-6-4-13-6-18l-145-313c-64-120-153-251-246-335-108 264-100 170-319 280zM7028 12507c4 88-2 137 220 204 106 32 218 41 352 66l7-385c-112-11-480 54-579 115z"/></g></g></svg>